<?xml version="1.0" encoding="UTF-8" standalone="no"?>
<!-- Created with Inkscape (http://www.inkscape.org/) -->

<svg
   xmlns:dc="http://purl.org/dc/elements/1.1/"
   xmlns:cc="http://creativecommons.org/ns#"
   xmlns:rdf="http://www.w3.org/1999/02/22-rdf-syntax-ns#"
   xmlns:svg="http://www.w3.org/2000/svg"
   xmlns="http://www.w3.org/2000/svg"
   xmlns:sodipodi="http://sodipodi.sourceforge.net/DTD/sodipodi-0.dtd"
   xmlns:inkscape="http://www.inkscape.org/namespaces/inkscape"
   version="1.1"
   id="svg4071"
   xml:space="preserve"
   width="637.33331"
   height="553.33331"
   viewBox="0 0 637.33331 553.33331"
   sodipodi:docname="genes.eps"><metadata
     id="metadata4077"><rdf:RDF><cc:Work
         rdf:about=""><dc:format>image/svg+xml</dc:format><dc:type
           rdf:resource="http://purl.org/dc/dcmitype/StillImage" /></cc:Work></rdf:RDF></metadata><defs
     id="defs4075"><clipPath
       clipPathUnits="userSpaceOnUse"
       id="clipPath4089"><path
         d="m 0,17.1016 h 4120.8 v 4120.8 H 0 Z"
         id="path4087"
         inkscape:connector-curvature="0" /></clipPath></defs><sodipodi:namedview
     pagecolor="#ffffff"
     bordercolor="#666666"
     borderopacity="1"
     objecttolerance="10"
     gridtolerance="10"
     guidetolerance="10"
     inkscape:pageopacity="0"
     inkscape:pageshadow="2"
     inkscape:window-width="640"
     inkscape:window-height="480"
     id="namedview4073"
     showgrid="false" /><g
     id="g4079"
     inkscape:groupmode="layer"
     inkscape:label="ink_ext_XXXXXX"
     transform="matrix(1.3333333,0,0,-1.3333333,0,553.33333)"><path
       inkscape:connector-curvature="0"
       id="path4091"
       style="fill:#f8766d;fill-opacity:1;fill-rule:nonzero;stroke:none;stroke-width:0.1"
       d="m 206.04,207.75 v 164.83 l -6.53,-0.13 0.22,-5.68 0.23,-5.68 0.23,-5.68 0.22,-5.67 0.23,-5.68 0.22,-5.68 0.23,-5.68 0.22,-5.68 0.23,-5.68 0.22,-5.68 0.23,-5.68 0.22,-5.68 0.23,-5.68 0.22,-5.68 0.23,-5.68 0.22,-5.68 0.23,-5.68 0.22,-5.68 0.23,-5.68 0.22,-5.68 0.23,-5.67 0.22,-5.68 0.23,-5.68 0.22,-5.68 0.23,-5.68 0.22,-5.68 0.23,-5.68 0.23,-5.68 0.22,-5.68 v 0" /><path
       inkscape:connector-curvature="0"
       id="path4093"
       style="fill:#df8c00;fill-opacity:1;fill-rule:nonzero;stroke:none;stroke-width:0.1"
       d="m 206.04,207.75 -0.22,5.68 -0.23,5.68 -0.23,5.68 -0.22,5.68 -0.23,5.68 -0.22,5.68 -0.23,5.68 -0.22,5.68 -0.23,5.67 -0.22,5.68 -0.23,5.68 -0.22,5.68 -0.23,5.68 -0.22,5.68 -0.23,5.68 -0.22,5.68 -0.23,5.68 -0.22,5.68 -0.23,5.68 -0.22,5.68 -0.23,5.68 -0.22,5.68 -0.23,5.68 -0.22,5.68 -0.23,5.68 -0.22,5.67 -0.23,5.68 -0.23,5.68 -0.22,5.68 -5.96,-0.34 -5.94,-0.56 -5.92,-0.78 0.84,-5.62 0.84,-5.62 0.84,-5.62 0.84,-5.62 0.84,-5.62 0.84,-5.63 0.84,-5.62 0.83,-5.62 0.84,-5.62 0.84,-5.62 0.84,-5.62 0.84,-5.62 0.84,-5.63 0.84,-5.62 0.84,-5.62 0.84,-5.62 0.84,-5.62 0.84,-5.62 0.84,-5.63 0.84,-5.62 0.84,-5.62 0.84,-5.62 0.84,-5.62 0.84,-5.62 0.84,-5.62 0.84,-5.63 0.84,-5.62 0.84,-5.62 0.84,-5.62 v 0" /><path
       inkscape:connector-curvature="0"
       id="path4095"
       style="fill:#b89f00;fill-opacity:1;fill-rule:nonzero;stroke:none;stroke-width:0.1"
       d="m 206.04,207.75 -0.84,5.62 -0.84,5.62 -0.84,5.62 -0.84,5.63 -0.84,5.62 -0.84,5.62 -0.84,5.62 -0.84,5.62 -0.84,5.62 -0.84,5.62 -0.84,5.63 -0.84,5.62 -0.84,5.62 -0.84,5.62 -0.84,5.62 -0.84,5.62 -0.84,5.63 -0.84,5.62 -0.84,5.62 -0.84,5.62 -0.84,5.62 -0.83,5.62 -0.84,5.62 -0.84,5.63 -0.84,5.62 -0.84,5.62 -0.84,5.62 -0.84,5.62 -0.84,5.62 -5.74,-0.96 -5.69,-1.16 -5.66,-1.36 -5.6,-1.56 -5.54,-1.76 -5.47,-1.95 -5.41,-2.14 -5.32,-2.34 -5.24,-2.51 -5.15,-2.71 -5.05,-2.88 2.91,-4.88 2.9,-4.89 2.9,-4.89 2.91,-4.88 2.9,-4.89 2.91,-4.88 2.9,-4.89 2.9,-4.89 2.91,-4.88 2.9,-4.89 2.91,-4.88 2.9,-4.89 2.9,-4.88 2.91,-4.89 2.9,-4.89 2.91,-4.88 2.9,-4.89 2.91,-4.88 2.9,-4.89 2.9,-4.89 2.91,-4.88 2.9,-4.89 2.91,-4.88 2.9,-4.89 2.9,-4.89 2.91,-4.88 2.9,-4.89 2.91,-4.88 2.9,-4.89 v 0" /><path
       inkscape:connector-curvature="0"
       id="path4097"
       style="fill:#d4ff2a;fill-opacity:1;fill-rule:nonzero;stroke:none;stroke-width:0.1"
       d="m 206.04,207.75 -2.9,4.89 -2.91,4.88 -2.9,4.89 -2.91,4.88 -2.9,4.89 -2.9,4.89 -2.91,4.88 -2.9,4.89 -2.91,4.88 -2.9,4.89 -2.9,4.89 -2.91,4.88 -2.9,4.89 -2.91,4.88 -2.9,4.89 -2.91,4.89 -2.9,4.88 -2.9,4.89 -2.91,4.88 -2.9,4.89 -2.91,4.88 -2.9,4.89 -2.9,4.89 -2.91,4.88 -2.9,4.89 -2.91,4.88 -2.9,4.89 -2.9,4.89 -2.91,4.88 -4.79,-2.96 -4.68,-3.12 -4.58,-3.28 -4.46,-3.43 -4.3401,-3.58 -4.2199,-3.73 -4.0898,-3.87 -3.95,-4.01 -3.8204,-4.14 -3.6699,-4.27 -3.5199,-4.4 -3.3699,-4.5 -3.2102,-4.63 -3.0597,-4.73 -2.8903,-4.83 -2.7199,-4.92 -2.55,-5.02 -2.3898,-5.1 -2.2,-5.18 -2.0301,-5.25 -1.85,-5.32 -1.6602,-5.38 -1.4801,-5.43 -1.3,-5.48 -1.1,-5.52 -0.9199,-5.56 -0.7199,-5.58 -0.5398,-5.6 -0.3403,-5.62 -0.15,-5.63 0.0403,-5.63 0.2296,-5.62 0.4204,-5.62 0.6199,-5.59 0.8097,-5.58 1,-5.54 1.1801,-5.5 1.3699,-5.46 1.5602,-5.41 1.75,-5.35 1.9199,-5.29 2.1,-5.23 2.2801,-5.14 2.4602,-5.07 2.6296,-4.98 2.7903,-4.89 2.9597,-4.78 3.1204,-4.69 3.2796,-4.57 3.4403,-4.46 3.5898,-4.35 3.7301,-4.2098 3.8699,-4.0903 4.0102,-3.95 4.1398,-3.8097 4.2701,-3.6704 4.4,-3.5199 4.51,-3.3699 4.62,-3.2102 4.73,-3.05 4.83,-2.8898 4.93,-2.7199 5.02,-2.55 5.1,-2.3801 5.18,-2.2102 5.26,-2.0199 5.31,-1.85 5.38,-1.6597 5.44,-1.4801 5.48,-1.2903 5.52,-1.1 5.55,-0.9199 5.58,-0.7199 5.61,-0.5301 5.62,-0.35 5.63,-0.1398 5.63,0.0398 5.62,0.2301 5.61,0.4301 5.6,0.6199 -0.72,5.6398 -0.72,5.6403 -0.72,5.6301 -0.72,5.6398 -0.73,5.6398 -0.72,5.6403 -0.72,5.6301 -0.72,5.6398 -0.72,5.6398 -0.72,5.6402 -0.72,5.64 -0.72,5.63 -0.72,5.64 -0.72,5.64 -0.73,5.64 -0.72,5.64 -0.72,5.63 -0.72,5.64 -0.72,5.64 -0.72,5.64 -0.72,5.64 -0.72,5.63 -0.72,5.64 -0.72,5.64 -0.73,5.64 -0.72,5.64 -0.72,5.63 -0.72,5.64 -0.72,5.64 v 0" /><path
       inkscape:connector-curvature="0"
       id="path4099"
       style="fill:#07ba33;fill-opacity:1;fill-rule:nonzero;stroke:none;stroke-width:0.1"
       d="m 206.04,207.75 0.72,-5.64 0.72,-5.64 0.72,-5.63 0.72,-5.64 0.73,-5.64 0.72,-5.64 0.72,-5.64 0.72,-5.63 0.72,-5.64 0.72,-5.64 0.72,-5.64 0.72,-5.64 0.72,-5.63 0.72,-5.64 0.73,-5.64 0.72,-5.64 0.72,-5.64 0.72,-5.63 0.72,-5.64 0.72,-5.6402 0.72,-5.6398 0.72,-5.6398 0.72,-5.6301 0.72,-5.6403 0.73,-5.6398 0.72,-5.6398 0.72,-5.6301 0.72,-5.6403 0.72,-5.6398 5.57,0.8102 5.54,1 5.5,1.1898 5.46,1.3699 5.41,1.5602 5.35,1.75 5.29,1.9199 5.22,2.1102 5.15,2.2796 5.06,2.4602 4.98,2.6199 4.89,2.8 4.78,2.9602 4.69,3.1301 4.57,3.2796 4.46,3.4403 4.34,3.5801 4.21,3.7296 4.09,3.8801 3.95,4.0102 3.81,4.1398 3.66,4.2801 3.52,4.39 3.37,4.51 3.21,4.63 3.05,4.73 2.88,4.83 2.73,4.93 2.55,5.02 2.37,5.1 2.21,5.18 2.02,5.25 1.84,5.32 1.66,5.38 1.48,5.43 1.29,5.48 1.1,5.52 -5.59,1.02 -5.59,1.02 -5.59,1.01 -5.6,1.02 -5.59,1.02 -5.59,1.01 -5.59,1.02 -5.6,1.02 -5.59,1.02 -5.59,1.01 -5.59,1.02 -5.59,1.02 -5.6,1.01 -5.59,1.02 -5.59,1.02 -5.59,1.02 -5.59,1.01 -5.6,1.02 -5.59,1.02 -5.59,1.02 -5.59,1.01 -5.6,1.02 -5.59,1.02 -5.59,1.01 -5.59,1.02 -5.59,1.02 -5.6,1.02 -5.59,1.01 -5.59,1.02 v 0" /><path
       inkscape:connector-curvature="0"
       id="path4101"
       style="fill:#05c08a;fill-opacity:1;fill-rule:nonzero;stroke:none;stroke-width:0.1"
       d="m 206.04,207.75 5.59,-1.02 5.59,-1.01 5.6,-1.02 5.59,-1.02 5.59,-1.02 5.59,-1.01 5.59,-1.02 5.6,-1.02 5.59,-1.01 5.59,-1.02 5.59,-1.02 5.6,-1.02 5.59,-1.01 5.59,-1.02 5.59,-1.02 5.59,-1.02 5.6,-1.01 5.59,-1.02 5.59,-1.02 5.59,-1.01 5.59,-1.02 5.6,-1.02 5.59,-1.02 5.59,-1.01 5.59,-1.02 5.6,-1.02 5.59,-1.01 5.59,-1.02 5.59,-1.02 0.94,5.74 0.74,5.77 0.53,5.79 0.33,5.81 0.12,5.81 -0.08,5.82 -0.29,5.8 -0.49,5.8 -0.7,5.77 -0.9,5.75 -5.59,-0.98 -5.6,-0.98 -5.6,-0.98 -5.6,-0.97 -5.6,-0.98 -5.6,-0.98 -5.6,-0.98 -5.6,-0.98 -5.6,-0.97 -5.6,-0.98 -5.6,-0.98 -5.59,-0.98 -5.6,-0.97 -5.6,-0.98 -5.6,-0.98 -5.6,-0.98 -5.6,-0.98 -5.6,-0.97 -5.6,-0.98 -5.6,-0.98 -5.6,-0.98 -5.6,-0.98 -5.6,-0.97 -5.59,-0.98 -5.6,-0.98 -5.6,-0.98 -5.6,-0.97 -5.6,-0.98 -5.6,-0.98 v 0" /><path
       inkscape:connector-curvature="0"
       id="path4103"
       style="fill:#00bfc4;fill-opacity:1;fill-rule:nonzero;stroke:none;stroke-width:0.1"
       d="m 206.04,207.75 5.6,0.98 5.6,0.98 5.6,0.97 5.6,0.98 5.6,0.98 5.59,0.98 5.6,0.97 5.6,0.98 5.6,0.98 5.6,0.98 5.6,0.98 5.6,0.97 5.6,0.98 5.6,0.98 5.6,0.98 5.6,0.98 5.6,0.97 5.59,0.98 5.6,0.98 5.6,0.98 5.6,0.97 5.6,0.98 5.6,0.98 5.6,0.98 5.6,0.98 5.6,0.97 5.6,0.98 5.6,0.98 5.59,0.98 -2.06,10 -5.53,-1.32 -5.53,-1.32 -5.53,-1.32 -5.53,-1.33 -5.52,-1.32 -5.53,-1.32 -5.53,-1.33 -5.53,-1.32 -5.52,-1.32 -5.53,-1.33 -5.53,-1.32 -5.53,-1.32 -5.53,-1.32 -5.52,-1.33 -5.53,-1.32 -5.53,-1.32 -5.53,-1.33 -5.52,-1.32 -5.53,-1.32 -5.53,-1.32 -5.53,-1.33 -5.53,-1.32 -5.52,-1.32 -5.53,-1.33 -5.53,-1.32 -5.53,-1.32 -5.52,-1.32 -5.53,-1.33 -5.53,-1.32 v 0" /><path
       inkscape:connector-curvature="0"
       id="path4105"
       style="fill:#00b4f1;fill-opacity:1;fill-rule:nonzero;stroke:none;stroke-width:0.1"
       d="m 206.04,207.75 5.53,1.32 5.53,1.33 5.52,1.32 5.53,1.32 5.53,1.32 5.53,1.33 5.52,1.32 5.53,1.32 5.53,1.33 5.53,1.32 5.53,1.32 5.52,1.32 5.53,1.33 5.53,1.32 5.53,1.32 5.52,1.33 5.53,1.32 5.53,1.32 5.53,1.32 5.53,1.33 5.52,1.32 5.53,1.32 5.53,1.33 5.53,1.32 5.52,1.32 5.53,1.33 5.53,1.32 5.53,1.32 5.53,1.32 -1.55,5.97 -1.77,5.9 -1.99,5.84 -2.2,5.75 -5.27,-2.13 -5.27,-2.13 -5.27,-2.13 -5.27,-2.13 -5.27,-2.14 -5.26,-2.13 -5.27,-2.13 -5.27,-2.13 -5.27,-2.13 -5.27,-2.14 -5.27,-2.13 -5.27,-2.13 -5.27,-2.13 -5.27,-2.13 -5.26,-2.13 -5.27,-2.14 -5.27,-2.13 -5.27,-2.13 -5.27,-2.13 -5.27,-2.13 -5.27,-2.14 -5.27,-2.13 -5.27,-2.13 -5.27,-2.13 -5.26,-2.13 -5.27,-2.13 -5.27,-2.14 -5.27,-2.13 -5.27,-2.13 v 0" /><path
       inkscape:connector-curvature="0"
       id="path4107"
       style="fill:#5f9bff;fill-opacity:1;fill-rule:nonzero;stroke:none;stroke-width:0.1"
       d="m 206.04,207.75 5.27,2.13 5.27,2.13 5.27,2.14 5.27,2.13 5.26,2.13 5.27,2.13 5.27,2.13 5.27,2.13 5.27,2.14 5.27,2.13 5.27,2.13 5.27,2.13 5.27,2.13 5.27,2.14 5.26,2.13 5.27,2.13 5.27,2.13 5.27,2.13 5.27,2.13 5.27,2.14 5.27,2.13 5.27,2.13 5.27,2.13 5.26,2.13 5.27,2.14 5.27,2.13 5.27,2.13 5.27,2.13 5.27,2.13 -2.79,6.49 -5.17,-2.36 -5.17,-2.35 -5.18,-2.36 -5.17,-2.35 -5.17,-2.36 -5.17,-2.35 -5.18,-2.36 -5.17,-2.36 -5.17,-2.35 -5.18,-2.36 -5.17,-2.35 -5.17,-2.36 -5.17,-2.35 -5.18,-2.36 -5.17,-2.35 -5.17,-2.36 -5.18,-2.35 -5.17,-2.36 -5.17,-2.36 -5.17,-2.35 -5.18,-2.36 -5.17,-2.35 -5.17,-2.36 -5.18,-2.35 -5.17,-2.36 -5.17,-2.35 -5.17,-2.36 -5.18,-2.35 -5.17,-2.36 v 0" /><path
       inkscape:connector-curvature="0"
       id="path4109"
       style="fill:#c67bff;fill-opacity:1;fill-rule:nonzero;stroke:none;stroke-width:0.1"
       d="m 206.04,207.75 5.17,2.36 5.18,2.35 5.17,2.36 5.17,2.35 5.17,2.36 5.18,2.35 5.17,2.36 5.17,2.35 5.18,2.36 5.17,2.35 5.17,2.36 5.17,2.36 5.18,2.35 5.17,2.36 5.17,2.35 5.18,2.36 5.17,2.35 5.17,2.36 5.17,2.35 5.18,2.36 5.17,2.35 5.17,2.36 5.18,2.36 5.17,2.35 5.17,2.36 5.17,2.35 5.18,2.36 5.17,2.35 5.17,2.36 -2.85,5.93 -3.08,5.82 -3.31,5.69 -3.54,5.56 -4.73,-3.15 -4.73,-3.15 -4.73,-3.15 -4.74,-3.15 -4.73,-3.15 -4.73,-3.14 -4.73,-3.15 -4.73,-3.15 -4.74,-3.15 -4.73,-3.15 -4.73,-3.15 -4.73,-3.15 -4.74,-3.14 -4.73,-3.15 -4.73,-3.15 -4.73,-3.15 -4.73,-3.15 -4.74,-3.15 -4.73,-3.14 -4.73,-3.15 -4.73,-3.15 -4.73,-3.15 -4.74,-3.15 -4.73,-3.15 -4.73,-3.15 -4.73,-3.14 -4.74,-3.15 -4.73,-3.15 -4.73,-3.15 v 0" /><path
       inkscape:connector-curvature="0"
       id="path4111"
       style="fill:#f562e4;fill-opacity:1;fill-rule:nonzero;stroke:none;stroke-width:0.1"
       d="m 206.04,207.75 4.73,3.15 4.73,3.15 4.74,3.15 4.73,3.14 4.73,3.15 4.73,3.15 4.74,3.15 4.73,3.15 4.73,3.15 4.73,3.15 4.73,3.14 4.74,3.15 4.73,3.15 4.73,3.15 4.73,3.15 4.73,3.15 4.74,3.14 4.73,3.15 4.73,3.15 4.73,3.15 4.74,3.15 4.73,3.15 4.73,3.15 4.73,3.14 4.73,3.15 4.74,3.15 4.73,3.15 4.73,3.15 4.73,3.15 -3.66,5.28 -3.87,5.13 -4.06,4.98 -4.33,-3.68 -4.34,-3.68 -4.33,-3.68 -4.33,-3.68 -4.33,-3.68 -4.34,-3.68 -4.33,-3.68 -4.33,-3.68 -4.33,-3.67 -4.34,-3.68 -4.33,-3.68 -4.33,-3.68 -4.33,-3.68 -4.33,-3.68 -4.34,-3.68 -4.33,-3.68 -4.33,-3.68 -4.33,-3.68 -4.34,-3.68 -4.33,-3.68 -4.33,-3.68 -4.33,-3.68 -4.34,-3.67 -4.33,-3.68 -4.33,-3.68 -4.33,-3.68 -4.34,-3.68 -4.33,-3.68 -4.33,-3.68 v 0" /><path
       inkscape:connector-curvature="0"
       id="path4113"
       style="fill:#ff63b1;fill-opacity:1;fill-rule:nonzero;stroke:none;stroke-width:0.1"
       d="m 206.04,207.75 4.33,3.68 4.33,3.68 4.34,3.68 4.33,3.68 4.33,3.68 4.33,3.68 4.34,3.67 4.33,3.68 4.33,3.68 4.33,3.68 4.34,3.68 4.33,3.68 4.33,3.68 4.33,3.68 4.34,3.68 4.33,3.68 4.33,3.68 4.33,3.68 4.33,3.68 4.34,3.68 4.33,3.67 4.33,3.68 4.33,3.68 4.34,3.68 4.33,3.68 4.33,3.68 4.33,3.68 4.34,3.68 4.33,3.68 -3.78,4.29 -3.92,4.16 -4.06,4.02 -4.2,3.87 -4.33,3.73 -4.46,3.58 -4.57,3.41 -4.7,3.26 -4.8,3.1 -4.91,2.92 -5.01,2.75 -5.1,2.58 -5.19,2.4 -5.26,2.22 -5.34,2.03 -5.41,1.85 -5.47,1.66 -5.52,1.47 -5.57,1.28 -5.61,1.08 -5.64,0.89 -5.68,0.69 -5.69,0.5 -5.71,0.29 -5.71,0.1 v -5.68 -5.69 -5.68 -5.68 -5.69 -5.68 -5.69 -5.68 -5.68 -5.69 -5.68 -5.68 -5.69 -5.68 -5.69 -5.68 -5.68 -5.69 -5.68 -5.69 -5.68 -5.68 -5.69 -5.68 -5.68 -5.69 -5.68 -5.69 -5.68 0" /><g
       id="g4115"><text
         id="text4119"
         style="font-variant:normal;font-weight:normal;font-size:11px;font-family:Helvetica;-inkscape-font-specification:Helvetica;writing-mode:lr-tb;fill:#000000;fill-opacity:1;fill-rule:nonzero;stroke:none"
         transform="matrix(1,0,0,-1,417.75,310.22)"><tspan
           id="tspan4117"
           sodipodi:role="line"
           y="0"
           x="0 2.7281177 8.8441181 14.344118 17.402117 23.518118 27.181118 30.844118 39.402119 45.518116 51.634117 57.750118">factor(Gene)</tspan></text>
</g><path
       inkscape:connector-curvature="0"
       id="path4121"
       style="fill:#f8766d;fill-opacity:1;fill-rule:nonzero;stroke:none;stroke-width:0.1"
       d="m 418.46,286.49 h 15.8598 v 15.8602 H 418.46 Z" /><path
       inkscape:connector-curvature="0"
       id="path4123"
       style="fill:#df8c00;fill-opacity:1;fill-rule:nonzero;stroke:none;stroke-width:0.1"
       d="m 418.46,269.21 h 15.8598 v 15.8598 H 418.46 Z" /><path
       inkscape:connector-curvature="0"
       id="path4125"
       style="fill:#b89f00;fill-opacity:1;fill-rule:nonzero;stroke:none;stroke-width:0.1"
       d="m 418.46,251.93 h 15.8598 v 15.8598 H 418.46 Z" /><path
       inkscape:connector-curvature="0"
       id="path4127"
       style="fill:#7dae00;fill-opacity:1;fill-rule:nonzero;stroke:none;stroke-width:0.1"
       d="m 418.46,234.65 h 15.8598 v 15.8602 H 418.46 Z" /><path
       inkscape:connector-curvature="0"
       id="path4129"
       style="fill:#07ba33;fill-opacity:1;fill-rule:nonzero;stroke:none;stroke-width:0.1"
       d="m 418.46,217.37 h 15.8598 v 15.8602 H 418.46 Z" /><path
       inkscape:connector-curvature="0"
       id="path4131"
       style="fill:#05c08a;fill-opacity:1;fill-rule:nonzero;stroke:none;stroke-width:0.1"
       d="m 418.46,200.09 h 15.8598 v 15.8602 H 418.46 Z" /><path
       inkscape:connector-curvature="0"
       id="path4133"
       style="fill:#00bfc4;fill-opacity:1;fill-rule:nonzero;stroke:none;stroke-width:0.1"
       d="m 418.46,182.81 h 15.8598 v 15.8598 H 418.46 Z" /><path
       inkscape:connector-curvature="0"
       id="path4135"
       style="fill:#00b4f1;fill-opacity:1;fill-rule:nonzero;stroke:none;stroke-width:0.1"
       d="m 418.46,165.53 h 15.8598 v 15.8598 H 418.46 Z" /><path
       inkscape:connector-curvature="0"
       id="path4137"
       style="fill:#5f9bff;fill-opacity:1;fill-rule:nonzero;stroke:none;stroke-width:0.1"
       d="m 418.46,148.25 h 15.8598 v 15.8602 H 418.46 Z" /><path
       inkscape:connector-curvature="0"
       id="path4139"
       style="fill:#c67bff;fill-opacity:1;fill-rule:nonzero;stroke:none;stroke-width:0.1"
       d="m 418.46,130.97 h 15.8598 v 15.8602 H 418.46 Z" /><path
       inkscape:connector-curvature="0"
       id="path4141"
       style="fill:#f562e4;fill-opacity:1;fill-rule:nonzero;stroke:none;stroke-width:0.1"
       d="m 418.46,113.69 h 15.8598 v 15.8602 H 418.46 Z" /><path
       inkscape:connector-curvature="0"
       id="path4143"
       style="fill:#ff63b1;fill-opacity:1;fill-rule:nonzero;stroke:none;stroke-width:0.1"
       d="m 418.46,96.4102 h 15.8598 V 112.27 H 418.46 Z" /><g
       id="g4145"><text
         id="text4171"
         style="font-variant:normal;font-weight:normal;font-size:9px;font-family:Helvetica;-inkscape-font-specification:Helvetica;writing-mode:lr-tb;fill:#000000;fill-opacity:1;fill-rule:nonzero;stroke:none"
         transform="matrix(1,0,0,-1,440.51,291.19)"><tspan
           id="tspan4147"
           y="0"
           x="0">E</tspan><tspan
           id="tspan4149"
           y="17.279699"
           x="0">M</tspan><tspan
           id="tspan4151"
           y="34.559399"
           x="0">N</tspan><tspan
           id="tspan4153"
           sodipodi:role="line"
           y="51.8391"
           x="0 7.0019999 13.5 18.999001 24.003">ORF1a</tspan><tspan
           id="tspan4155"
           sodipodi:role="line"
           y="69.118797"
           x="0 7.0019999 13.5 18.999001 24.003">ORF1b</tspan><tspan
           id="tspan4157"
           sodipodi:role="line"
           y="86.398499"
           x="0 7.0019999 13.5 18.999001 24.003">ORF3a</tspan><tspan
           id="tspan4159"
           sodipodi:role="line"
           y="103.6782"
           x="0 7.0019999 13.5 18.999001">ORF6</tspan><tspan
           id="tspan4161"
           sodipodi:role="line"
           y="120.9579"
           x="0 7.0019999 13.5 18.999001 24.003">ORF7a</tspan><tspan
           id="tspan4163"
           sodipodi:role="line"
           y="138.23759"
           x="0 7.0019999 13.5 18.999001 24.003">ORF7b</tspan><tspan
           id="tspan4165"
           sodipodi:role="line"
           y="155.5173"
           x="0 7.0019999 13.5 18.999001">ORF8</tspan><tspan
           id="tspan4167"
           sodipodi:role="line"
           y="172.797"
           x="0 7.0019999 13.5 18.999001 24.003">ORF9b</tspan><tspan
           id="tspan4169"
           y="190.07671"
           x="0">S</tspan></text>
</g></g></svg>